# xmcd
#
# Track frame offsets:
#	150
#	12011
#	23585
#	34670
#	49850
#	63278
#	74487
#	88292
#	103850
#	116553
#	129947
#	141849
#	156472
#	170905
#	186353
#	198693
#	213756
#	229037
#
# Disc length: 3230 seconds
#
# Revision: 0
# Processed by: cddbd v1.5.2PL0 Copyright (c) Steve Scherf et al.
# Submitted via: EasyCDDAExtractor 16.0.6.1
#
DISCID=050c9c12
DTITLE=Συλλογικός δίσκος - Τα μεγάλα τραγούδια-Άκης Πάνου 1
DYEAR=1993
DGENRE=Λαϊκή
TTITLE0=Διονυσίου Στράτος - Εγώ καλά σού τά 'λεγα [1972]
TTITLE1=Μπιθικώτσης Γρηγόρης-Λαμπράκη Χαρούλα - Θα κλείσω τα μάτια [1967]
TTITLE2=Μοσχολιού Βίκυ-Γκίκα Βούλα - Ούτε αχ δε θα πω [1970]
TTITLE3=Διονυσίου Στράτος - Και τι δεν κάνω [1968]
TTITLE4=Λύδια Γιώτα - Η πιο μεγάλη ώρα [1968]
TTITLE5=Διονυσίου Στράτος - Ήταν ψεύτικα [1972]
TTITLE6=Μπιθικώτσης Γρηγόρης - Ρολόϊ κομπολόϊ [1968]
TTITLE7=Διονυσίου Στράτος - Να είχα το κουράγιο [1971]
TTITLE8=Μοσχολιού Βίκυ-Γκίκα Βούλα - Δεν κλαίω για τώρα [1970]
TTITLE9=Καζαντζίδης Στέλιος - Άντε να περάσει η μέρα [1974]
TTITLE10=Λύδια Γιώτα - Ολόκληρη ζωή [1968]
TTITLE11=Διονυσίου Στράτος - Στον σταθμό του Μονάχου [1972]
TTITLE12=Διονυσίου Στράτος - Γιατί καλέ γειτόνισσα [1968]
TTITLE13=Μοσχολιού Βίκυ-Γκίκα Βούλα - Πήρα απ' το χέρι σου νερό [1968]
TTITLE14=Καζαντζίδης Στέλιος - Οι μισοί καλοί [1974]
TTITLE15=Μενιδιάτης Μιχάλης - Παράνομη αγάπη [1968]
TTITLE16=Διονυσίου Στράτος - Άσ' τη να φύγει [1967]
TTITLE17=Διονυσίου Στράτος - Μιά γυναίκα [1967]
EXTD=
EXTT0=
EXTT1=
EXTT2=
EXTT3=
EXTT4=
EXTT5=
EXTT6=
EXTT7=
EXTT8=
EXTT9=
EXTT10=
EXTT11=
EXTT12=
EXTT13=
EXTT14=
EXTT15=
EXTT16=
EXTT17=
PLAYORDER=
